<svg width="100" height="100" viewBox="0 0 2134 2134" xmlns="http://www.w3.org/2000/svg" stroke-linejoin="round">
    <g id="Swords">
        <g id="swords">
        <path id="Main" d="M208 1925l42-239 1045-1044 -124-123 75-75 205 143 259-260c-14-37-9-86 15-118l166 35 34 166c-34 23-81 25-119 12l-259 260 137 211 -75 75 -120-128 -1045 1044 -237 41Z"/>
        <path id="Secondary-Blade" d="M1340 1143l-197 197 544 544 237 41 -42-239 -543-543Z"/>
        <path id="Secondary-Hilt" d="M795 991l197-197 -153-153 124-123 -75-75 -205 143 -259-260c14-37 9-86-15-118l-166 35 -34 166c34 23 81 25 119 12l259 260 -137 211 75 75 120-128 152 152Z"/>
        </g>
    </g>
</svg>