<svg xmlns="http://www.w3.org/2000/svg" height="512" width="512" viewBox="0 0 512 512" class="undefined">
      <g transform="translate(0 128.00007)matrix(1.0871629 0 0 1.0551775 -30.19429 -15.220043)" class="undefined">
        <path d="m307.8 219c-42 0-47.1-98-89.2-98-42 0-47.1 98-89.2 98-31.5 0-66.9-73.5-66.9-73.5v161.7c0 26.9 20.1 49 44.6 49h312.1c24.5 0 44.6-22 44.6-49V194.5c0 0-35.4-73.5-66.9-73.5-42 0-47.1 98-89.2 98z" class="undefined"/>
        <path d="M419.3-84.8H107.2c-24.5 0-44.6 22-44.6 49V76.9c0 0 35.4 73.5 66.9 73.5 42 0 47.1-98 89.2-98 42 0 47.1 98 89.2 98 42 0 47.1-98 89.2-98 31.5 0 66.9 73.5 66.9 73.5V-35.8c0-26.9-20.1-49-44.6-49z" class="undefined"/>
      </g>
</svg>