<?xml version="1.0" encoding="UTF-8" standalone="no"?>
<!DOCTYPE svg PUBLIC "-//W3C//DTD SVG 1.1//EN" "http://www.w3.org/Graphics/SVG/1.1/DTD/svg11.dtd">
<svg version="1.0" xmlns="http://www.w3.org/2000/svg"
 width="700.000000pt" height="700.000000pt" viewBox="0 0 700.000000 700.000000"
 preserveAspectRatio="xMidYMid meet">
<g transform="translate(0.000000,700.000000) scale(0.100000,-0.100000)"
fill="#000000" stroke="none">
<path d="M5577 6311 c-68 -75 -149 -284 -168 -431 -5 -41 -18 -159 -29 -262
-40 -372 -92 -609 -163 -741 -24 -45 -76 -128 -116 -184 -95 -136 -115 -181
-107 -247 18 -134 114 -346 244 -540 249 -371 356 -416 647 -276 173 83 319
203 363 299 45 99 29 290 -43 486 -37 101 -44 117 -183 415 -135 290 -164 373
-238 668 -62 250 -77 340 -108 659 -20 207 -33 227 -99 154z"/>
<path d="M2940 4530 c-239 -110 -438 -201 -442 -202 -3 -2 -36 -196 -72 -433
l-65 -430 -34 -30 c-245 -216 -221 -199 -418 -287 -141 -62 -212 -101 -304
-165 l-119 -83 -38 -136 -37 -136 80 -368 80 -368 -61 -123 -62 -124 -230
-232 -231 -231 7 -229 c3 -125 9 -278 12 -340 l7 -112 132 -84 132 -85 268
-21 c148 -12 344 -24 437 -28 167 -6 169 -6 193 17 39 36 45 82 43 291 -3 186
-2 196 21 247 30 66 81 112 230 205 64 39 136 93 162 118 50 49 73 104 104
251 17 78 37 116 128 247 48 68 49 70 57 168 4 55 14 113 23 129 39 76 155
146 301 184 103 26 282 43 371 34 141 -14 147 -25 105 -205 -22 -91 -29 -141
-24 -166 11 -59 73 -108 269 -213 196 -105 278 -169 317 -248 36 -73 31 -205
-16 -452 -48 -247 -48 -338 2 -441 38 -79 93 -143 164 -192 l53 -37 623 50
c342 27 626 52 631 54 5 3 50 75 100 160 l92 154 -236 579 -237 578 -25 390
-25 390 -101 155 c-77 116 -134 190 -232 294 -71 76 -144 155 -161 175 -31 36
-34 48 -90 366 l-57 330 -160 271 -161 271 -374 66 -374 66 -148 80 c-82 45
-155 81 -162 81 -7 0 -209 -90 -448 -200z"/>
<path d="M5991 2639 c-81 -11 -191 -70 -247 -132 -193 -213 -129 -540 131
-668 66 -32 74 -34 180 -34 103 0 114 2 177 32 113 53 196 146 233 262 28 85
18 218 -23 301 -83 172 -261 266 -451 239z"/>
</g>
</svg>
